PathFileType	4	(X/Y/Z)	Patient4_TMGait_0pt8_01_left_31.trc.trc
DataRate	CameraRate	NumFrames	NumMarkers	Units	OrigDataRate	OrigDataStartFrame	OrigNumFrames
89.743589743590	89.743589743590	5	33	mm	89.743589743590	36	       141
Frame#	Time	Sacral			L.Shoulder			Chest			R.Shoulder			Neck			R.ASIS			L.ASIS			R.Thigh.Superior			R.Thigh.Lateral			R.Thigh.Inferior			R.Patella			L.Thigh.Superior			L.Thigh.Lateral			L.Thigh.Inferior			L.Patella			L.Shank.Superior			L.Shank.Lateral			L.Shank.Inferior			R.Shank.Superior			R.Shank.Lateral			R.Shank.Inferior			R.Heel			R.Midfoot.Superior			R.Midfoot.Lateral			R.Toe			L.Heel			L.Midfoot.Lateral			L.Midfoot.Superior			L.Toe			L.Elbow			L.Wrist			R.Elbow			R.Wrist			
		X1	Y1	Z1	X2	Y2	Z2	X3	Y3	Z3	X4	Y4	Z4	X5	Y5	Z5	X6	Y6	Z6	X7	Y7	Z7	X8	Y8	Z8	X9	Y9	Z9	X10	Y10	Z10	X11	Y11	Z11	X12	Y12	Z12	X13	Y13	Z13	X14	Y14	Z14	X15	Y15	Z15	X16	Y16	Z16	X17	Y17	Z17	X18	Y18	Z18	X19	Y19	Z19	X20	Y20	Z20	X21	Y21	Z21	X22	Y22	Z22	X23	Y23	Z23	X24	Y24	Z24	X25	Y25	Z25	X26	Y26	Z26	X27	Y27	Z27	X28	Y28	Z28	X29	Y29	Z29	X30	Y30	Z30	X31	Y31	Z31	X32	Y32	Z32	X33	Y33	Z33	

36	34.490000000000	856.595963976558	998.493269249771	483.565737647986	1016.492405186989	1412.825256661942	283.544811929831	1129.184328715205	1353.946596636726	442.967233703655	1055.119797689086	1438.067395906519	616.855158693675	1005.179318056728	1482.952810434728	436.886188388567	1079.631753257856	928.523787121392	598.841839696657	1068.124246492441	948.021180396405	325.124776387749	1091.620760841290	715.557949085234	578.399410996740	992.757288307728	616.806593360310	638.809333571441	1066.526305381725	549.043540775585	567.600640267762	1044.615695744197	444.690364738185	584.077631011326	1142.893404444295	764.023456966021	357.074856094901	1080.153902855307	636.767030280088	287.415980239760	1178.770173932960	573.825635653861	349.801037471793	1192.134015998486	503.348978587265	355.230026695225	1172.974740102085	427.383231664694	346.362975175742	1095.825783672010	304.289429193957	294.334341607951	1162.231275718747	199.003801364474	362.950112475128	968.953644000526	379.869466982737	586.472138478194	848.769245067163	333.553039359862	643.041137851755	840.755259657424	225.407400289158	588.692062075853	641.864148896369	136.787289056579	554.060576884200	816.690977575464	113.866310592236	598.711716597928	709.692739133825	92.169982629124	629.141690566322	899.881233910667	32.532127496406	627.500717455470	1049.399036057472	38.237344139492	408.229070678018	1119.591714771703	36.145980807951	323.604162007743	1202.014240415056	99.082183506934	347.007017473143	1329.745858428634	51.080926252746	313.446737488426	890.338076210297	1079.244806846370	206.335467253685	834.224867438611	826.809405810603	237.349617470986	1177.067456115365	1127.581590162811	751.171699508627	1386.684559258078	1233.895610160701	672.031022535020	
37	34.501142857143	856.372605010571	999.969087005029	480.961463036653	1017.558190295739	1414.296508666858	281.500847570287	1129.453562258388	1355.562400954450	441.490802070650	1054.530817646943	1439.680535960338	615.007701862246	1005.508302390245	1484.475694024857	434.749931434814	1079.384229625577	929.953119360067	596.380381572532	1068.259780503057	949.958247880589	322.834466503058	1097.100113834925	718.287171439026	576.205803764471	1001.666188119791	617.144614428101	637.432742139464	1077.785147235729	550.795715997231	566.548846097517	1057.271908805923	444.689654522804	584.256744211939	1141.821404274040	763.656664811343	352.541470945096	1075.538642009166	636.835066770137	285.560615441354	1174.063632982272	572.898082731109	346.939449650403	1186.581954098831	502.769518788593	353.255479640926	1166.889017591098	426.931134884788	344.753503493867	1088.558407019031	304.308891928948	293.533605334694	1154.221231079265	198.763054025481	362.297303390295	979.172873345679	380.927608543485	586.043599130483	856.857507103453	339.493576663435	642.128375341094	845.107452454381	231.578108014160	588.445803279289	643.400156859777	153.572313503087	552.736545081139	816.162299257500	119.270937158520	598.816051176232	707.630180633478	104.391414962063	628.150291029260	892.683458350158	31.741771137228	627.595077626686	1040.503788417988	38.172568362751	408.101135066055	1110.626813631268	36.125281265632	323.419004111948	1192.983375469488	99.139746977930	346.774527065704	1320.703731576539	51.451453219445	313.132634312503	897.803728916397	1078.167383215731	201.874641116330	847.292403895741	824.386732291222	231.316538238920	1166.214898642010	1124.686643521871	750.658305703760	1379.958902701319	1223.616534933423	672.824608462653	
38	34.512285714286	855.919702449873	1001.458614722783	478.453888731392	1018.630259220451	1415.816679539252	279.576740741094	1129.635521606770	1357.153646114194	440.146827505222	1053.773289257229	1441.192712543138	613.290000596618	1005.778291392384	1485.980642273109	432.753577306731	1078.955275211955	931.421698601720	594.105776643737	1068.207378820830	951.786514982780	320.699178062864	1102.740542077366	721.407887467490	574.206774704189	1010.908458210203	617.844108116270	636.142557731413	1089.349365715997	553.109305023135	565.483638248876	1070.437343850483	445.364480942090	584.113454554109	1140.274175689018	763.010561750214	348.163671351889	1070.505235911508	636.842536017139	283.877570370645	1168.859506460492	571.870090869433	344.352769817657	1180.478098989588	502.095849499517	351.433965791472	1160.296639485798	426.450752900116	343.238694766389	1080.855054409075	304.241270317589	292.922405548124	1145.964295038422	198.494139419377	361.714649411619	990.147219050005	382.446469254174	585.348687486930	865.996220094090	345.756445085607	641.071382665864	850.526198482895	238.289910791280	587.950570065729	646.610352427181	170.931179124603	551.223098796218	816.747870758785	125.535389270076	598.704672074425	707.039795259167	117.465938075320	626.996622625113	886.499757775848	31.397788932672	627.584771982993	1031.523129403791	38.086628196188	408.023815910233	1101.579745457135	36.053826076021	323.295162420175	1183.898506791729	99.112540216921	346.603722531525	1311.614386856925	51.652505954375	312.886375546600	905.511006399170	1077.252646305680	197.366588894520	861.359371689585	822.115235242842	225.187343243226	1154.601220411617	1121.850283038518	750.043620507548	1372.846377451981	1212.070895481311	673.805297258912	
39	34.523428571429	855.242600452037	1002.908456183583	476.061745406546	1019.724270778646	1417.337038859585	277.781912035000	1129.736745997789	1358.669325839829	438.953739584554	1052.849945897839	1442.558390919711	611.721385701546	1005.997527787287	1487.434199856091	430.909071855488	1078.359538041765	932.898785132440	592.036657366252	1067.977182954967	953.472736488247	318.728416755812	1108.418301674585	724.904090027461	572.363898003458	1020.349490589258	618.946066129701	634.903642039023	1101.015262299313	556.009975523667	564.340214396982	1083.933595933106	446.742438899123	583.593927525120	1138.281005508768	762.166464091282	344.135981580984	1065.302529820543	636.869739706522	282.340418050338	1163.303981340451	570.811860528041	342.134442807013	1173.966957137782	501.360445650347	349.813140535756	1153.347828715859	425.959701008209	341.866247978142	1072.903643287808	304.119439049042	292.431804574385	1137.551382278608	198.208807290946	361.214796580361	1001.707626170334	384.446109370437	584.375243516055	876.024126387695	352.260424478473	639.869516009651	856.953915634163	245.414901372220	587.209285130498	651.428427544920	188.350936586729	549.612557196643	818.527148980512	132.511336465977	598.336198698244	708.033619009461	130.990465952010	625.725476849383	881.658817968915	31.726277123541	627.385604798168	1022.486809593560	37.997485517048	407.973854008470	1092.486357058735	35.949719198341	323.215070590480	1174.800627330976	99.010317565422	346.488106492816	1302.511272382333	51.688770016497	312.709273276735	913.416506957692	1076.490661749465	192.838711751799	876.330754858112	820.048038021520	218.980029339149	1142.342726165747	1119.097005403634	749.296323976516	1365.299394142980	1199.268045404935	674.976729530063	
40	34.534571428571	854.365280850849	1004.276274504005	473.796964261447	1020.843687312110	1418.820789217102	276.125680469777	1129.761677542726	1360.074342323544	437.925525734428	1051.769621533505	1443.748942086926	610.318026392134	1006.173540876492	1488.814832191537	429.228124327542	1077.618138106959	934.364839500288	590.172446480191	1067.585514315734	955.002769696380	316.914647102698	1114.010335075447	728.750762624312	570.615402782911	1029.865683784238	620.479644595066	633.684566292677	1112.597071063329	559.505749190609	563.064863545923	1097.597746699398	448.832552240014	582.690886395673	1135.896106140770	761.214201309770	340.611871997352	1060.128514910996	636.968701588492	280.928199680502	1157.534640553491	569.777499022083	340.329986055221	1167.190519835514	500.591765099289	348.429113419940	1146.184318151466	425.472959723556	340.671453095015	1064.865154900024	303.975044357868	292.008007606041	1129.061629675266	197.918833098908	360.806206975284	1013.697035996685	386.935301593754	583.149099350580	886.776364463849	358.913862950190	638.546868244170	864.334643683483	252.796922641861	586.257574089627	657.736412398719	205.296560969296	548.016790897300	821.582341039046	139.980300949790	597.686141519278	710.687341829625	144.505615399114	624.396842044697	878.502505782058	32.915330560391	626.915095330233	1013.423128935400	37.918090310947	407.933509993449	1083.377251998019	35.831728662528	323.163262073792	1165.719162672244	98.851800312257	346.418917181328	1293.418495650936	51.587615455401	312.593039256617	921.493762729015	1075.870383342685	188.315411251583	892.131739352397	818.237800819725	212.711807514037	1129.563789406909	1116.453079610645	748.386789831695	1357.258936185148	1185.219474175341	676.344218988533	
